<svg xmlns="http://www.w3.org/2000/svg" width="59.590" height="60.159" viewBox="0 0 59.590 60.159" fill="none">
  <path d="M 22.814 59.062 C 20.415 58.28 17.377 57.028 16.018 56.403 C 5.145 50.77 -1.651 36.846 0.348 24.485 C 1.547 17.445 4.665 11.812 10.741 5.554 L 16.098 0 L 19.136 2.894 C 21.854 5.554 22.014 6.024 20.895 7.119 C 20.255 7.901 18.097 10.248 16.018 12.36 C 10.581 18.227 8.902 22.139 8.823 29.179 C 8.823 34.108 9.222 35.75 11.141 39.505 C 14.899 46.859 23.053 51.865 31.048 51.865 C 36.965 51.865 42.961 48.893 48.957 43.026 L 53.994 38.254 L 56.792 40.913 C 58.311 42.4 59.59 43.808 59.59 44.043 C 59.59 44.825 52.874 51.474 49.437 54.134 C 42.241 59.532 30.809 61.644 22.814 59.062 Z" fill="currentColor" fill-rule="nonzero"></path>
</svg>